<svg width="23" height="22" viewBox="0 0 23 22" fill="none" xmlns="http://www.w3.org/2000/svg">
<path d="M14.5 8H14.51M8.5 8H8.51M21.5 11C21.5 16.5228 17.0228 21 11.5 21C5.97715 21 1.5 16.5228 1.5 11C1.5 5.47715 5.97715 1 11.5 1C17.0228 1 21.5 5.47715 21.5 11ZM15 8C15 8.27614 14.7761 8.5 14.5 8.5C14.2239 8.5 14 8.27614 14 8C14 7.72386 14.2239 7.5 14.5 7.5C14.7761 7.5 15 7.72386 15 8ZM9 8C9 8.27614 8.77614 8.5 8.5 8.5C8.22386 8.5 8 8.27614 8 8C8 7.72386 8.22386 7.5 8.5 7.5C8.77614 7.5 9 7.72386 9 8ZM11.5 16.5C14.0005 16.5 16 14.667 16 13H7C7 14.667 8.9995 16.5 11.5 16.5Z" stroke="white" stroke-opacity="0.7" stroke-width="2" stroke-linecap="round" stroke-linejoin="round"/>
</svg>
