<svg width="20" height="20" viewBox="0 0 20 20" fill="none" xmlns="http://www.w3.org/2000/svg">
<path d="M3.33203 16.6667H2.58203C2.58203 16.8656 2.66105 17.0563 2.8017 17.197C2.94236 17.3377 3.13312 17.4167 3.33204 17.4167L3.33203 16.6667ZM3.33203 13.3333L2.8017 12.803C2.66105 12.9437 2.58203 13.1344 2.58203 13.3333H3.33203ZM12.3892 4.27613L11.8589 3.7458L11.8589 3.7458L12.3892 4.27613ZM14.2748 4.27613L13.7445 4.80646V4.80646L14.2748 4.27613ZM15.7225 5.72384L16.2529 5.19351L16.2529 5.19351L15.7225 5.72384ZM15.7226 7.60946L15.1922 7.07913V7.07913L15.7226 7.60946ZM6.66536 16.6667L6.66537 17.4167C6.86428 17.4167 7.05504 17.3376 7.19569 17.197L6.66536 16.6667ZM16.2794 6.40918L16.9927 6.17741V6.17741L16.2794 6.40918ZM16.2794 6.92414L15.5661 6.69238L16.2794 6.92414ZM13.0745 3.71928L12.8428 3.00599L13.0745 3.71928ZM13.5896 3.71928L13.8214 3.00599L13.5896 3.71928ZM10.529 6.13634C10.2361 5.84345 9.76126 5.84345 9.46837 6.13634C9.17547 6.42923 9.17547 6.90411 9.46837 7.197L10.529 6.13634ZM12.8017 10.5303C13.0946 10.8232 13.5695 10.8232 13.8624 10.5303C14.1553 10.2374 14.1553 9.76257 13.8624 9.46967L12.8017 10.5303ZM3.33203 16.6667H4.08203V13.3333H3.33203H2.58203V16.6667H3.33203ZM3.33203 13.3333L3.86236 13.8637L12.9196 4.80646L12.3892 4.27613L11.8589 3.7458L2.8017 12.803L3.33203 13.3333ZM14.2748 4.27613L13.7445 4.80646L15.1922 6.25417L15.7225 5.72384L16.2529 5.19351L14.8052 3.7458L14.2748 4.27613ZM15.7226 7.60946L15.1922 7.07913L6.13503 16.1363L6.66536 16.6667L7.19569 17.197L16.2529 8.13979L15.7226 7.60946ZM6.66536 16.6667L6.66536 15.9167L3.33203 15.9167L3.33203 16.6667L3.33204 17.4167L6.66537 17.4167L6.66536 16.6667ZM15.7225 5.72384L15.1922 6.25417C15.366 6.42793 15.464 6.52678 15.5298 6.6043C15.5899 6.67514 15.578 6.67748 15.5661 6.64094L16.2794 6.40918L16.9927 6.17741C16.919 5.9506 16.7936 5.77528 16.6733 5.63352C16.5586 5.49845 16.4091 5.34977 16.2529 5.19351L15.7225 5.72384ZM15.7226 7.60946L16.2529 8.13979C16.4091 7.98353 16.5586 7.83485 16.6733 7.69978C16.7937 7.55801 16.919 7.3827 16.9927 7.1559L16.2794 6.92414L15.5661 6.69238C15.578 6.65585 15.5899 6.65819 15.5298 6.72902C15.464 6.80653 15.366 6.90538 15.1922 7.07913L15.7226 7.60946ZM16.2794 6.40918L15.5661 6.64094C15.5716 6.65768 15.5716 6.67564 15.5661 6.69238L16.2794 6.92414L16.9927 7.1559C17.096 6.8379 17.096 6.49541 16.9927 6.17741L16.2794 6.40918ZM12.3892 4.27613L12.9195 4.80646C13.0933 4.63271 13.1921 4.5347 13.2697 4.4689C13.3405 4.40879 13.3428 4.42071 13.3063 4.43258L13.0745 3.71928L12.8428 3.00599C12.616 3.07968 12.4407 3.20502 12.2989 3.32537C12.1638 3.44003 12.0152 3.58953 11.8589 3.7458L12.3892 4.27613ZM14.2748 4.27613L14.8052 3.7458C14.6489 3.58957 14.5003 3.44007 14.3652 3.32542C14.2235 3.20507 14.0482 3.0797 13.8214 3.00599L13.5896 3.71928L13.3578 4.43258C13.3213 4.42069 13.3236 4.40873 13.3944 4.46885C13.4719 4.53466 13.5707 4.63267 13.7445 4.80646L14.2748 4.27613ZM13.0745 3.71928L13.3063 4.43258C13.323 4.42714 13.3411 4.42714 13.3578 4.43258L13.5896 3.71928L13.8214 3.00599C13.5034 2.90267 13.1608 2.90267 12.8428 3.00599L13.0745 3.71928ZM9.9987 6.66667L9.46837 7.197L12.8017 10.5303L13.332 10L13.8624 9.46967L10.529 6.13634L9.9987 6.66667Z" fill="#1E1E1E"/>
</svg>
