<svg width="29" height="27" viewBox="0 0 29 27" fill="none" xmlns="http://www.w3.org/2000/svg">
<path d="M13.5815 1.13274C13.9286 0.326776 15.0714 0.326779 15.4185 1.13274L18.5912 8.50027C18.736 8.83645 19.0529 9.06667 19.4173 9.10047L27.4047 9.84128C28.2785 9.92232 28.6316 11.0091 27.9724 11.5883L21.9459 16.8825C21.6709 17.124 21.5499 17.4966 21.6303 17.8536L23.394 25.679C23.587 26.535 22.6625 27.2067 21.9079 26.7587L15.0106 22.6632C14.6958 22.4763 14.3042 22.4763 13.9894 22.6632L7.09208 26.7587C6.33755 27.2067 5.41305 26.535 5.60599 25.679L7.36967 17.8536C7.45015 17.4965 7.32911 17.124 7.05413 16.8825L1.02763 11.5883C0.368373 11.0091 0.721501 9.92232 1.59527 9.84128L9.58266 9.10047C9.94711 9.06667 10.264 8.83645 10.4088 8.50027L13.5815 1.13274Z" fill="white" fill-opacity="0.5"/>
</svg>
