<svg width="21" height="21" viewBox="0 0 21 21" fill="none" xmlns="http://www.w3.org/2000/svg">
<path d="M18.9856 4.93269C15.9564 0.249845 9.77191 -1.14235 4.97575 1.76861C0.305803 4.67957 -1.20877 11.0077 1.82038 15.6906L2.07281 16.0703L1.06309 19.8672L4.84953 18.8547L5.22818 19.1078C6.86897 19.9937 8.63597 20.5 10.403 20.5C12.2962 20.5 14.1894 19.9937 15.8302 18.9812C20.5002 15.9437 21.8885 9.74211 18.9856 4.93269ZM16.3351 14.6781C15.8302 15.4375 15.1991 15.9437 14.3156 16.0703C13.8108 16.0703 13.1797 16.3234 10.6554 15.3109C8.50976 14.2984 6.74275 12.6531 5.48061 10.7546C4.72332 9.86867 4.34467 8.7296 4.21846 7.59053C4.21846 6.57802 4.5971 5.69207 5.22818 5.05926C5.48061 4.80613 5.73304 4.67957 5.98547 4.67957H6.61654C6.86897 4.67957 7.1214 4.67957 7.24761 5.18582C7.50004 5.81864 8.13111 7.3374 8.13111 7.46396C8.25733 7.59053 8.25733 7.84365 8.13111 7.97022C8.25733 8.22334 8.13112 8.47647 8.0049 8.60303C7.87869 8.7296 7.75247 8.98272 7.62626 9.10929C7.37383 9.23585 7.24761 9.48898 7.37383 9.74211C7.87869 10.5015 8.50976 11.2609 9.14083 11.8937C9.89812 12.5265 10.6554 13.0328 11.5389 13.4124C11.7913 13.539 12.0438 13.539 12.17 13.2859C12.2962 13.0328 12.9273 12.3999 13.1797 12.1468C13.4321 11.8937 13.5583 11.8937 13.8108 12.0202L15.8302 13.0328C16.0826 13.1593 16.3351 13.2859 16.4613 13.4124C16.5875 13.7921 16.5875 14.2984 16.3351 14.6781Z" fill="#4CAF50"/>
</svg>
